<svg width="18" height="20" viewBox="0 0 18 20" fill="none" xmlns="http://www.w3.org/2000/svg">
<path fill-rule="evenodd" clip-rule="evenodd" d="M2.09008 0.0609178C1.92578 0.132094 1.75514 0.28804 1.66666 0.447893C1.60787 0.554032 1.60076 0.874714 1.59095 3.85168L1.58013 7.13827L1.21984 7.15546C0.7804 7.1764 0.518041 7.2791 0.300099 7.51556C-0.0152315 7.85765 0.000120878 7.66838 0.000120878 11.2102C0.000120878 14.3399 0.000511484 14.3558 0.0836022 14.5355C0.293419 14.9892 0.630508 15.194 1.21929 15.2253L1.57908 15.2444L1.59041 17.3389C1.60287 19.637 1.59236 19.5355 1.84245 19.7731C2.09782 20.0156 1.60732 19.9998 8.84828 19.9998C16.0892 19.9998 15.5987 20.0156 15.8541 19.7731C16.1042 19.5355 16.0937 19.637 16.1062 17.3389L16.1175 15.2444L16.4773 15.2253C17.0661 15.194 17.4031 14.9892 17.613 14.5355C17.6961 14.3558 17.6964 14.3399 17.6964 11.2102C17.6964 7.66838 17.7118 7.85765 17.3965 7.51556C17.1783 7.27891 16.9162 7.1764 16.4757 7.15538L16.1143 7.13816L16.1104 5.96114C16.1083 5.31376 16.0944 4.74013 16.0795 4.68642C16.0471 4.56977 12.195 0.153931 12.0456 0.062246C11.9512 0.00435211 11.5056 -0.00119508 7.08435 0.000172188C2.8322 0.00150039 2.20978 0.00907894 2.09008 0.0609178ZM11.4656 2.84975V4.91955L11.5796 5.04714L11.6936 5.17473L13.5133 5.18562L15.333 5.19652V6.17201V7.14749H8.84828H2.36354V3.96372V0.779943H6.91458H11.4656V2.84975ZM4.43225 8.4748C4.63542 8.51671 4.91282 8.60574 5.04869 8.67262C5.69873 8.99268 6.04824 9.67967 5.95788 10.4599C5.89819 10.9756 5.7435 11.3052 5.41883 11.6089C5.00017 12.0005 4.4335 12.1867 3.62404 12.1987L3.1071 12.2064L3.09666 13.2416L3.08623 14.2768L2.4319 14.2875L1.77757 14.2982V11.4065C1.77757 9.81604 1.79077 8.51308 1.80686 8.51105C1.82296 8.50902 2.01195 8.48495 2.22681 8.45757C2.87056 8.37553 3.99359 8.38428 4.43225 8.4748ZM9.55145 8.45476C10.038 8.52914 10.2882 8.60637 10.6507 8.79411C11.2179 9.08784 11.6361 9.57212 11.8338 10.1641C12.0959 10.9485 12.0435 11.9514 11.7028 12.6752C11.2919 13.5479 10.6546 14.0048 9.51238 14.2458C9.24291 14.3027 8.99255 14.3159 8.18418 14.3159C7.6363 14.3159 7.10455 14.3016 7.00247 14.2842L6.81692 14.2525V11.3836C6.81692 9.80573 6.82133 8.51359 6.82668 8.51218C6.83203 8.51077 7.03861 8.48667 7.28569 8.45862C7.91799 8.38686 9.09412 8.38483 9.55145 8.45476ZM16.4572 8.97377L16.4464 9.51091L15.3233 9.52126L14.2001 9.53165V10.1951V10.8586H15.2549H16.3096V11.3854V11.9121L15.2647 11.9225L14.2197 11.9329L14.2093 13.1146L14.199 14.2963H13.5355H12.8719V11.3665V8.43663H14.67H16.4681L16.4572 8.97377ZM3.32062 9.40961L3.1253 9.43278L3.11479 10.2995L3.10428 11.1662L3.28312 11.193C3.72065 11.2586 4.2288 11.1106 4.44893 10.8534C4.81032 10.4312 4.70594 9.75256 4.24271 9.51302C4.13426 9.45692 3.69068 9.36903 3.57454 9.38063C3.54232 9.38383 3.42805 9.39688 3.32062 9.40961ZM8.23301 9.44083L8.14512 9.45774V11.3674V13.2771L8.28661 13.3037C8.46853 13.3378 9.04552 13.2941 9.29753 13.2271C9.93522 13.0577 10.3695 12.595 10.5306 11.9134C10.611 11.5736 10.5917 10.8508 10.4942 10.5445C10.2528 9.78667 9.64751 9.40555 8.70593 9.41856C8.49416 9.42149 8.28137 9.43149 8.23301 9.44083ZM15.333 17.109V18.9841H8.84828H2.36354V17.109V15.2339H8.84828H15.333V17.109Z" fill="#FF7640"/>
</svg>
