  <svg width="20" height="20" viewBox="0 0 20 20" fill="none" xmlns="http://www.w3.org/2000/svg">
                            <path d="M5.83331 4.16663C5.83331 2.78329 6.94998 1.66663 8.33331 1.66663H11.6666C13.05 1.66663 14.1666 2.78329 14.1666 4.16663C14.1666 4.62496 13.7916 4.99996 13.3333 4.99996H6.66665C6.20831 4.99996 5.83331 4.62496 5.83331 4.16663Z" fill="#FF7640" />
                            <path d="M14.7916 12.5C14.7916 12.8417 14.5083 13.125 14.1666 13.125H13.3333V15.8333C13.3333 17.2167 12.2166 18.3333 10.8333 18.3333H9.16665C7.78331 18.3333 6.66665 17.2167 6.66665 15.8333V13.125H5.83331C5.49165 13.125 5.20831 12.8417 5.20831 12.5C5.20831 12.1583 5.49165 11.875 5.83331 11.875H14.1666C14.5083 11.875 14.7916 12.1583 14.7916 12.5Z" fill="#FF7640" />
                            <path d="M15 5.83337H5C3.33333 5.83337 2.5 6.66671 2.5 8.33337V12.5C2.5 14.1667 3.33333 15 5 15H5.3125C5.60015 15 5.83333 14.7669 5.83333 14.4792C5.83333 14.1916 5.59275 13.9671 5.32368 13.8654C4.77182 13.6569 4.375 13.1211 4.375 12.5C4.375 11.7 5.03333 11.0417 5.83333 11.0417H14.1667C14.9667 11.0417 15.625 11.7 15.625 12.5C15.625 13.1211 15.2282 13.6569 14.6763 13.8654C14.4072 13.9671 14.1667 14.1916 14.1667 14.4792C14.1667 14.7669 14.3999 15 14.6875 15H15C16.6667 15 17.5 14.1667 17.5 12.5V8.33337C17.5 6.66671 16.6667 5.83337 15 5.83337ZM8.33333 9.79171H5.83333C5.49167 9.79171 5.20833 9.50837 5.20833 9.16671C5.20833 8.82504 5.49167 8.54171 5.83333 8.54171H8.33333C8.675 8.54171 8.95833 8.82504 8.95833 9.16671C8.95833 9.50837 8.675 9.79171 8.33333 9.79171Z" fill="#FF7640" />
                        </svg>
