<svg width="22" height="21" viewBox="0 0 22 21" fill="none" xmlns="http://www.w3.org/2000/svg">
<path fill-rule="evenodd" clip-rule="evenodd" d="M10.7895 0.875001C16.1053 0.875 20.4145 5.18426 20.4145 10.5C20.4146 15.8157 16.1053 20.125 10.7896 20.125C5.47381 20.125 1.16455 15.8157 1.16455 10.5C1.16455 5.18426 5.47381 0.875001 10.7895 0.875001ZM10.7895 2.625C6.44031 2.625 2.91455 6.15076 2.91455 10.5C2.91455 14.8492 6.44031 18.375 10.7896 18.375C15.1388 18.375 18.6646 14.8492 18.6645 10.5C18.6645 6.15076 15.1388 2.625 10.7895 2.625ZM11.9208 14.6187L13.1583 13.3813L10.277 10.5L13.1583 7.61872L11.9208 6.38128L7.80211 10.5L11.9208 14.6187Z" fill="#ADB5BD"/>
</svg>
