    <svg width="20" height="20" viewBox="0 0 20 20" fill="none" xmlns="http://www.w3.org/2000/svg">
                            <path d="M11.9583 1.66663H8.04167C7.17501 1.66663 6.46667 2.36663 6.46667 3.23329V4.01663C6.46667 4.88329 7.16667 5.58329 8.03334 5.58329H11.9583C12.825 5.58329 13.525 4.88329 13.525 4.01663V3.23329C13.5333 2.36663 12.825 1.66663 11.9583 1.66663Z" fill="#F1B44C" />
                            <path d="M14.3667 4.01665C14.3667 5.34165 13.2833 6.42498 11.9583 6.42498H8.04167C6.71667 6.42498 5.63334 5.34165 5.63334 4.01665C5.63334 3.54998 5.13334 3.25832 4.71667 3.47498C3.54167 4.09998 2.74167 5.34165 2.74167 6.76665V14.6083C2.74167 16.6583 4.41667 18.3333 6.46667 18.3333H13.5333C15.5833 18.3333 17.2583 16.6583 17.2583 14.6083V6.76665C17.2583 5.34165 16.4583 4.09998 15.2833 3.47498C14.8667 3.25832 14.3667 3.54998 14.3667 4.01665ZM12.7833 10.6083L9.45 13.9416C9.325 14.0666 9.16667 14.125 9.00834 14.125C8.85 14.125 8.69167 14.0666 8.56667 13.9416L7.31667 12.6916C7.075 12.45 7.075 12.05 7.31667 11.8083C7.55834 11.5666 7.95834 11.5666 8.2 11.8083L9.00834 12.6166L11.9 9.72498C12.1417 9.48332 12.5417 9.48332 12.7833 9.72498C13.025 9.96665 13.025 10.3666 12.7833 10.6083Z" fill="#F1B44C" />
                        </svg>