<svg width="18" height="18" viewBox="0 0 18 18" fill="none" xmlns="http://www.w3.org/2000/svg">
<path d="M3.05176e-05 8.50003C-0.00341034 9.8199 0.304962 11.1219 0.90003 12.3C1.6056 13.7118 2.69028 14.8992 4.03258 15.7293C5.37488 16.5594 6.92179 16.9994 8.50003 17C9.8199 17.0035 11.1219 16.6951 12.3 16.1L18 18L16.1 12.3C16.6951 11.1219 17.0035 9.8199 17 8.50003C16.9994 6.92179 16.5594 5.37488 15.7293 4.03258C14.8992 2.69028 13.7118 1.6056 12.3 0.900029C11.1219 0.30496 9.8199 -0.00341276 8.50003 2.84881e-05H8.00003C5.91568 0.11502 3.94699 0.99479 2.47089 2.47089C0.994793 3.94699 0.115023 5.91568 3.05176e-05 8.00003V8.50003Z" fill="#6F9CDF"/>
<rect x="4" y="6" width="9" height="1" rx="0.5" fill="white"/>
<rect x="4" y="10" width="9" height="1" rx="0.5" fill="white"/>
</svg>
