<svg width="18" height="19" viewBox="0 0 18 19" fill="none" xmlns="http://www.w3.org/2000/svg">
<path d="M9 18.2136C13.9706 18.2136 18 14.1842 18 9.21362C18 4.24306 13.9706 0.213623 9 0.213623C4.02943 0.213623 0 4.24306 0 9.21362C0 14.1842 4.02943 18.2136 9 18.2136Z" fill="#34C38F"/>
<path fill-rule="evenodd" clip-rule="evenodd" d="M4.95117 6.96362C5.57249 6.96362 6.07617 6.45994 6.07617 5.83862C6.07617 5.21731 5.57249 4.71362 4.95117 4.71362C4.32986 4.71362 3.82617 5.21731 3.82617 5.83862C3.82617 6.45994 4.32986 6.96362 4.95117 6.96362Z" fill="white"/>
<path fill-rule="evenodd" clip-rule="evenodd" d="M4.95117 10.5636C5.57249 10.5636 6.07617 10.0599 6.07617 9.4386C6.07617 8.81728 5.57249 8.3136 4.95117 8.3136C4.32986 8.3136 3.82617 8.81728 3.82617 9.4386C3.82617 10.0599 4.32986 10.5636 4.95117 10.5636Z" fill="white"/>
<path fill-rule="evenodd" clip-rule="evenodd" d="M9 6.96362C9.62132 6.96362 10.125 6.45994 10.125 5.83862C10.125 5.21731 9.62132 4.71362 9 4.71362C8.37868 4.71362 7.875 5.21731 7.875 5.83862C7.875 6.45994 8.37868 6.96362 9 6.96362Z" fill="white"/>
<path fill-rule="evenodd" clip-rule="evenodd" d="M9 10.5636C9.62132 10.5636 10.125 10.0599 10.125 9.4386C10.125 8.81728 9.62132 8.3136 9 8.3136C8.37868 8.3136 7.875 8.81728 7.875 9.4386C7.875 10.0599 8.37868 10.5636 9 10.5636Z" fill="white"/>
<path fill-rule="evenodd" clip-rule="evenodd" d="M13.0488 6.96362C13.6701 6.96362 14.1738 6.45994 14.1738 5.83862C14.1738 5.21731 13.6701 4.71362 13.0488 4.71362C12.4275 4.71362 11.9238 5.21731 11.9238 5.83862C11.9238 6.45994 12.4275 6.96362 13.0488 6.96362Z" fill="white"/>
<path fill-rule="evenodd" clip-rule="evenodd" d="M13.0488 10.5636C13.6701 10.5636 14.1738 10.0599 14.1738 9.4386C14.1738 8.81728 13.6701 8.3136 13.0488 8.3136C12.4275 8.3136 11.9238 8.81728 11.9238 9.4386C11.9238 10.0599 12.4275 10.5636 13.0488 10.5636Z" fill="white"/>
<path d="M5.84766 13.2635H12.1477" stroke="white" stroke-width="2" stroke-linecap="round" stroke-linejoin="round"/>
</svg>
