<svg width="20" height="20" viewBox="0 0 20 20" fill="none" xmlns="http://www.w3.org/2000/svg">
<path d="M17.084 8.49163H14.6757C12.7007 8.49163 11.0923 6.88329 11.0923 4.90829V2.49996C11.0923 2.04163 10.7173 1.66663 10.259 1.66663H6.72565C4.15898 1.66663 2.08398 3.33329 2.08398 6.30829V13.6916C2.08398 16.6666 4.15898 18.3333 6.72565 18.3333H13.2757C15.8423 18.3333 17.9173 16.6666 17.9173 13.6916V9.32496C17.9173 8.86663 17.5423 8.49163 17.084 8.49163ZM9.60898 11.275C9.48398 11.4 9.32565 11.4583 9.16732 11.4583C9.00898 11.4583 8.85065 11.4 8.72565 11.275L8.12565 10.675V14.1666C8.12565 14.5083 7.84232 14.7916 7.50065 14.7916C7.15898 14.7916 6.87565 14.5083 6.87565 14.1666V10.675L6.27565 11.275C6.03398 11.5166 5.63398 11.5166 5.39232 11.275C5.15065 11.0333 5.15065 10.6333 5.39232 10.3916L7.05898 8.72496C7.11732 8.67496 7.17565 8.63329 7.24232 8.59996C7.25898 8.59163 7.28398 8.58329 7.30065 8.57496C7.35065 8.55829 7.40065 8.54996 7.45898 8.54163C7.48398 8.54163 7.50065 8.54163 7.52565 8.54163C7.59232 8.54163 7.65898 8.55829 7.72565 8.58329C7.73398 8.58329 7.73398 8.58329 7.74232 8.58329C7.80898 8.60829 7.87565 8.65829 7.92565 8.70829C7.93398 8.71663 7.94232 8.71663 7.94232 8.72496L9.60898 10.3916C9.85065 10.6333 9.85065 11.0333 9.60898 11.275Z" fill="#50A5F1"/>
<path d="M14.5241 7.3417C15.3158 7.35004 16.4158 7.35003 17.3574 7.35003C17.8324 7.35003 18.0824 6.7917 17.7491 6.45837C16.5491 5.25003 14.3991 3.07503 13.1658 1.8417C12.8241 1.50003 12.2324 1.73337 12.2324 2.20837V5.1167C12.2324 6.33337 13.2658 7.3417 14.5241 7.3417Z" fill="#50A5F1"/>
</svg>
 