<svg width="20" height="20" viewBox="0 0 20 20" fill="none" xmlns="http://www.w3.org/2000/svg">
<path d="M17.084 8.49163H14.6757C12.7007 8.49163 11.0923 6.88329 11.0923 4.90829V2.49996C11.0923 2.04163 10.7173 1.66663 10.259 1.66663H6.72565C4.15898 1.66663 2.08398 3.33329 2.08398 6.30829V13.6916C2.08398 16.6666 4.15898 18.3333 6.72565 18.3333H13.2757C15.8423 18.3333 17.9173 16.6666 17.9173 13.6916V9.32496C17.9173 8.86663 17.5423 8.49163 17.084 8.49163ZM10.234 13.15L8.56732 14.8166C8.50898 14.875 8.43398 14.925 8.35898 14.95C8.28398 14.9833 8.20898 15 8.12565 15C8.04232 15 7.96732 14.9833 7.89232 14.95C7.82565 14.925 7.75898 14.875 7.70898 14.825C7.70065 14.8166 7.69232 14.8166 7.69232 14.8083L6.02565 13.1416C5.78398 12.9 5.78398 12.5 6.02565 12.2583C6.26732 12.0166 6.66732 12.0166 6.90898 12.2583L7.50065 12.8666V9.37496C7.50065 9.03329 7.78398 8.74996 8.12565 8.74996C8.46732 8.74996 8.75065 9.03329 8.75065 9.37496V12.8666L9.35065 12.2666C9.59232 12.025 9.99232 12.025 10.234 12.2666C10.4757 12.5083 10.4757 12.9083 10.234 13.15Z" fill="#46BFCF"/>
<path d="M14.5241 7.3417C15.3158 7.35004 16.4158 7.35003 17.3574 7.35003C17.8324 7.35003 18.0824 6.7917 17.7491 6.45837C16.5491 5.25003 14.3991 3.07503 13.1658 1.8417C12.8241 1.50003 12.2324 1.73337 12.2324 2.20837V5.1167C12.2324 6.33337 13.2658 7.3417 14.5241 7.3417Z" fill="#46BFCF"/>
</svg>
