<svg width="20" height="20" viewBox="0 0 20 20" fill="none" xmlns="http://www.w3.org/2000/svg">
<path d="M13.492 1.66663H6.50866C3.47533 1.66663 1.66699 3.47496 1.66699 6.50829V13.4833C1.66699 16.525 3.47533 18.3333 6.50866 18.3333H13.4837C16.517 18.3333 18.3253 16.525 18.3253 13.4916V6.50829C18.3337 3.47496 16.5253 1.66663 13.492 1.66663ZM13.9837 8.08329L9.25866 12.8083C9.14199 12.925 8.98366 12.9916 8.81699 12.9916C8.65033 12.9916 8.49199 12.925 8.37533 12.8083L6.01699 10.45C5.77533 10.2083 5.77533 9.80829 6.01699 9.56663C6.25866 9.32496 6.65866 9.32496 6.90033 9.56663L8.81699 11.4833L13.1003 7.19996C13.342 6.95829 13.742 6.95829 13.9837 7.19996C14.2253 7.44163 14.2253 7.83329 13.9837 8.08329Z" fill="white"/>
</svg>
