<svg width="31" height="13" viewBox="0 0 31 13" fill="none" xmlns="http://www.w3.org/2000/svg">
<path d="M6.409 12.17C4.471 12.17 2.98633 11.694 1.955 10.742C0.935 9.79 0.425 8.41867 0.425 6.628C0.425 4.78067 0.952 3.364 2.006 2.378C3.07133 1.38067 4.61267 0.881999 6.63 0.881999C7.93333 0.881999 9.06667 1.04067 10.03 1.358V4.095C9.146 3.76633 8.08633 3.602 6.851 3.602C5.78567 3.602 4.99233 3.84567 4.471 4.333C3.94967 4.809 3.689 5.574 3.689 6.628C3.689 7.60267 3.91 8.31667 4.352 8.77C4.80533 9.22333 5.491 9.45 6.409 9.45C6.953 9.45 7.47433 9.37633 7.973 9.229V7.631H5.797V5.659H10.642V11.167C10.1773 11.4617 9.588 11.7053 8.874 11.898C8.17133 12.0793 7.34967 12.17 6.409 12.17ZM17.6012 12.17C15.6179 12.17 14.1049 11.6883 13.0622 10.725C12.0196 9.75033 11.4982 8.36767 11.4982 6.577C11.4982 4.72967 12.0082 3.31867 13.0282 2.344C14.0596 1.36933 15.5782 0.881999 17.5842 0.881999C18.2302 0.881999 18.8139 0.932999 19.3352 1.035C19.8679 1.12567 20.4006 1.26733 20.9332 1.46V4.248C19.9586 3.81733 18.9159 3.602 17.8052 3.602C16.7626 3.602 15.9919 3.84 15.4932 4.316C15.0059 4.792 14.7622 5.54567 14.7622 6.577C14.7622 7.57433 15.0172 8.30533 15.5272 8.77C16.0486 9.22333 16.8192 9.45 17.8392 9.45C18.9612 9.45 20.0039 9.24033 20.9672 8.821V11.626C19.9132 11.9887 18.7912 12.17 17.6012 12.17ZM22.1644 1.052H25.3604V9.552H30.2904V12H22.1644V1.052Z" fill="#F46A6A"/>
</svg>
