<svg width="16" height="10" viewBox="0 0 16 10" fill="none" xmlns="http://www.w3.org/2000/svg">
                        <path d="M13 0.833496H3C1.33333 0.833496 0.5 1.66683 0.5 3.3335V7.50016C0.5 9.16683 1.33333 10.0002 3 10.0002H3.3125C3.60015 10.0002 3.83333 9.76698 3.83333 9.47933C3.83333 9.19168 3.59275 8.96719 3.32368 8.86551C2.77182 8.65698 2.375 8.12127 2.375 7.50016C2.375 6.70016 3.03333 6.04183 3.83333 6.04183H12.1667C12.9667 6.04183 13.625 6.70016 13.625 7.50016C13.625 8.12127 13.2282 8.65698 12.6763 8.86551C12.4072 8.96719 12.1667 9.19168 12.1667 9.47933C12.1667 9.76698 12.3999 10.0002 12.6875 10.0002H13C14.6667 10.0002 15.5 9.16683 15.5 7.50016V3.3335C15.5 1.66683 14.6667 0.833496 13 0.833496ZM6.33333 4.79183H3.83333C3.49167 4.79183 3.20833 4.5085 3.20833 4.16683C3.20833 3.82516 3.49167 3.54183 3.83333 3.54183H6.33333C6.675 3.54183 6.95833 3.82516 6.95833 4.16683C6.95833 4.5085 6.675 4.79183 6.33333 4.79183Z" fill="#FF7640" />
                    </svg>
