  <svg width="18" height="18" viewBox="0 0 18 18" fill="none" xmlns="http://www.w3.org/2000/svg">
                        <path d="M12.4916 0.666504H5.50829C2.47496 0.666504 0.666626 2.47484 0.666626 5.50817V12.4832C0.666626 15.5248 2.47496 17.3332 5.50829 17.3332H12.4833C15.5166 17.3332 17.325 15.5248 17.325 12.4915V5.50817C17.3333 2.47484 15.525 0.666504 12.4916 0.666504ZM12.9833 7.08317L8.25829 11.8082C8.14163 11.9248 7.98329 11.9915 7.81663 11.9915C7.64996 11.9915 7.49163 11.9248 7.37496 11.8082L5.01663 9.44984C4.77496 9.20817 4.77496 8.80817 5.01663 8.5665C5.25829 8.32484 5.65829 8.32484 5.89996 8.5665L7.81663 10.4832L12.1 6.19984C12.3416 5.95817 12.7416 5.95817 12.9833 6.19984C13.225 6.4415 13.225 6.83317 12.9833 7.08317Z" fill="white" />
                    </svg>
