 <svg width="20" height="20" viewBox="0 0 20 20" fill="none" xmlns="http://www.w3.org/2000/svg">
                            <path d="M12.9166 10.9584H11.1083C9.62496 10.9584 8.41663 9.75837 8.41663 8.26671V6.45837C8.41663 6.11671 8.14163 5.83337 7.79163 5.83337H5.14996C3.22496 5.83337 1.66663 7.08337 1.66663 9.31671V14.85C1.66663 17.0834 3.22496 18.3334 5.14996 18.3334H10.0583C11.9833 18.3334 13.5416 17.0834 13.5416 14.85V11.5834C13.5416 11.2334 13.2583 10.9584 12.9166 10.9584Z" fill="#74788D" />
                            <path d="M14.85 1.66663H13.2083H12.3H9.94167C8.05834 1.66663 6.53334 2.86663 6.46667 5.00829C6.51667 5.00829 6.55834 4.99996 6.60834 4.99996H8.96667H9.87501H11.5167C13.4417 4.99996 15 6.24996 15 8.48329V10.125V12.3833V14.025C15 14.075 14.9917 14.1166 14.9917 14.1583C16.85 14.1 18.3333 12.8666 18.3333 10.6916V9.04996V6.79163V5.14996C18.3333 2.91663 16.775 1.66663 14.85 1.66663Z" fill="#74788D" />
                            <path d="M9.98332 5.95837C9.72499 5.70004 9.28333 5.87504 9.28333 6.23337V8.4167C9.28333 9.33337 10.0583 10.0834 11.0083 10.0834C11.6 10.0917 12.425 10.0917 13.1333 10.0917C13.4917 10.0917 13.675 9.67504 13.425 9.42504C12.5167 8.5167 10.9 6.8917 9.98332 5.95837Z" fill="#74788D" />
                        </svg>