  <svg width="20" height="20" viewBox="0 0 20 20" fill="none" xmlns="http://www.w3.org/2000/svg">
                            <path d="M17.0833 8.49163H14.675C12.7 8.49163 11.0916 6.88329 11.0916 4.90829V2.49996C11.0916 2.04163 10.7166 1.66663 10.2583 1.66663H6.72498C4.15831 1.66663 2.08331 3.33329 2.08331 6.30829V13.6916C2.08331 16.6666 4.15831 18.3333 6.72498 18.3333H13.275C15.8416 18.3333 17.9166 16.6666 17.9166 13.6916V9.32496C17.9166 8.86663 17.5416 8.49163 17.0833 8.49163ZM9.60831 11.275C9.48331 11.4 9.32498 11.4583 9.16665 11.4583C9.00831 11.4583 8.84998 11.4 8.72498 11.275L8.12498 10.675V14.1666C8.12498 14.5083 7.84165 14.7916 7.49998 14.7916C7.15831 14.7916 6.87498 14.5083 6.87498 14.1666V10.675L6.27498 11.275C6.03331 11.5166 5.63331 11.5166 5.39165 11.275C5.14998 11.0333 5.14998 10.6333 5.39165 10.3916L7.05831 8.72496C7.11665 8.67496 7.17498 8.63329 7.24165 8.59996C7.25831 8.59163 7.28331 8.58329 7.29998 8.57496C7.34998 8.55829 7.39998 8.54996 7.45831 8.54163C7.48331 8.54163 7.49998 8.54163 7.52498 8.54163C7.59165 8.54163 7.65831 8.55829 7.72498 8.58329C7.73331 8.58329 7.73331 8.58329 7.74165 8.58329C7.80831 8.60829 7.87498 8.65829 7.92498 8.70829C7.93331 8.71663 7.94165 8.71663 7.94165 8.72496L9.60831 10.3916C9.84998 10.6333 9.84998 11.0333 9.60831 11.275Z" fill="#50A5F1" />
                            <path d="M14.525 7.3417C15.3167 7.35004 16.4167 7.35003 17.3583 7.35003C17.8333 7.35003 18.0833 6.7917 17.75 6.45837C16.55 5.25003 14.4 3.07503 13.1667 1.8417C12.825 1.50003 12.2333 1.73337 12.2333 2.20837V5.1167C12.2333 6.33337 13.2667 7.3417 14.525 7.3417Z" fill="#50A5F1" />
                        </svg>