  <svg width="20" height="20" viewBox="0 0 20 20" fill="none" xmlns="http://www.w3.org/2000/svg">
                            <path d="M17.0833 8.49163H14.675C12.7 8.49163 11.0916 6.88329 11.0916 4.90829V2.49996C11.0916 2.04163 10.7166 1.66663 10.2583 1.66663H6.72498C4.15831 1.66663 2.08331 3.33329 2.08331 6.30829V13.6916C2.08331 16.6666 4.15831 18.3333 6.72498 18.3333H13.275C15.8416 18.3333 17.9166 16.6666 17.9166 13.6916V9.32496C17.9166 8.86663 17.5416 8.49163 17.0833 8.49163ZM10.2333 13.15L8.56665 14.8166C8.50831 14.875 8.43331 14.925 8.35831 14.95C8.28331 14.9833 8.20831 15 8.12498 15C8.04165 15 7.96665 14.9833 7.89165 14.95C7.82498 14.925 7.75831 14.875 7.70831 14.825C7.69998 14.8166 7.69165 14.8166 7.69165 14.8083L6.02498 13.1416C5.78331 12.9 5.78331 12.5 6.02498 12.2583C6.26665 12.0166 6.66665 12.0166 6.90831 12.2583L7.49998 12.8666V9.37496C7.49998 9.03329 7.78331 8.74996 8.12498 8.74996C8.46665 8.74996 8.74998 9.03329 8.74998 9.37496V12.8666L9.34998 12.2666C9.59165 12.025 9.99165 12.025 10.2333 12.2666C10.475 12.5083 10.475 12.9083 10.2333 13.15Z" fill="#46BFCF" />
                            <path d="M14.525 7.3417C15.3167 7.35004 16.4167 7.35003 17.3583 7.35003C17.8333 7.35003 18.0833 6.7917 17.75 6.45837C16.55 5.25003 14.4 3.07503 13.1667 1.8417C12.825 1.50003 12.2333 1.73337 12.2333 2.20837V5.1167C12.2333 6.33337 13.2667 7.3417 14.525 7.3417Z" fill="#46BFCF" />
                        </svg>