<svg width="22" height="21" viewBox="0 0 22 21" fill="none" xmlns="http://www.w3.org/2000/svg">
<path fill-rule="evenodd" clip-rule="evenodd" d="M10.7896 20.125C5.47381 20.125 1.16455 15.8157 1.16455 10.5C1.16455 5.18426 5.47381 0.875 10.7896 0.875C16.1053 0.875 20.4146 5.18426 20.4146 10.5C20.4146 15.8157 16.1053 20.125 10.7896 20.125ZM10.7896 18.375C15.1388 18.375 18.6646 14.8492 18.6646 10.5C18.6646 6.15076 15.1388 2.625 10.7896 2.625C6.44031 2.625 2.91455 6.15076 2.91455 10.5C2.91455 14.8492 6.44031 18.375 10.7896 18.375ZM9.65827 6.38128L8.42084 7.61872L11.3021 10.5L8.42084 13.3813L9.65827 14.6187L13.777 10.5L9.65827 6.38128Z" fill="#FF7640"/>
</svg>
