<svg width="20" height="21" viewBox="0 0 20 21" fill="none" xmlns="http://www.w3.org/2000/svg">
<path fill-rule="evenodd" clip-rule="evenodd" d="M9.78906 20.125C4.47332 20.125 0.164062 15.8157 0.164062 10.5C0.164062 5.18426 4.47332 0.875 9.78906 0.875C15.1048 0.875 19.4141 5.18426 19.4141 10.5C19.4141 15.8157 15.1048 20.125 9.78906 20.125ZM9.78906 18.375C14.1383 18.375 17.6641 14.8492 17.6641 10.5C17.6641 6.15076 14.1383 2.625 9.78906 2.625C5.43982 2.625 1.91406 6.15076 1.91406 10.5C1.91406 14.8492 5.43982 18.375 9.78906 18.375ZM8.65779 6.38128L7.42035 7.61872L10.3016 10.5L7.42035 13.3813L8.65779 14.6187L12.7765 10.5L8.65779 6.38128Z" fill="#F2BDEE"/>
</svg>
