     <svg width="16" height="16" viewBox="0 0 16 16" fill="none" xmlns="http://www.w3.org/2000/svg">
                            <path d="M11.45 0.466702L3.92498 2.9667C-1.13336 4.65837 -1.13336 7.4167 3.92498 9.10004L6.15831 9.8417L6.89998 12.075C8.58331 17.1334 11.35 17.1334 13.0333 12.075L15.5416 4.55837C16.6583 1.18337 14.825 -0.658298 11.45 0.466702ZM11.7166 4.95004L8.54998 8.13337C8.42498 8.25837 8.26664 8.3167 8.10831 8.3167C7.94998 8.3167 7.79164 8.25837 7.66664 8.13337C7.42498 7.8917 7.42498 7.4917 7.66664 7.25004L10.8333 4.0667C11.075 3.82504 11.475 3.82504 11.7166 4.0667C11.9583 4.30837 11.9583 4.70837 11.7166 4.95004Z" fill="#34C38F" />
                        </svg>