<svg width="18" height="18" viewBox="0 0 18 18" fill="none" xmlns="http://www.w3.org/2000/svg">
<path d="M13.1667 2.50004H16.5C16.721 2.50004 16.933 2.58784 17.0892 2.74412C17.2455 2.9004 17.3333 3.11236 17.3333 3.33337V16.6667C17.3333 16.8877 17.2455 17.0997 17.0892 17.256C16.933 17.4122 16.721 17.5 16.5 17.5H1.49999C1.27898 17.5 1.06701 17.4122 0.910734 17.256C0.754454 17.0997 0.666656 16.8877 0.666656 16.6667V3.33337C0.666656 3.11236 0.754454 2.9004 0.910734 2.74412C1.06701 2.58784 1.27898 2.50004 1.49999 2.50004H4.83332V0.833374H6.49999V2.50004H11.5V0.833374H13.1667V2.50004ZM2.33332 7.50004V15.8334H15.6667V7.50004H2.33332ZM3.99999 10.8334H8.16666V14.1667H3.99999V10.8334Z" fill="#74788D"/>
</svg>
