<svg width="24" height="24" viewBox="0 0 24 24" fill="none" xmlns="http://www.w3.org/2000/svg">
<path d="M11.9993 3.66663C7.40768 3.66663 3.66602 7.40829 3.66602 12C3.66602 16.5916 7.40768 20.3333 11.9993 20.3333C16.591 20.3333 20.3327 16.5916 20.3327 12C20.3327 7.40829 16.591 3.66663 11.9993 3.66663ZM14.7993 13.9166C15.041 14.1583 15.041 14.5583 14.7993 14.8C14.6743 14.925 14.516 14.9833 14.3577 14.9833C14.1993 14.9833 14.041 14.925 13.916 14.8L11.9993 12.8833L10.0827 14.8C9.95768 14.925 9.79935 14.9833 9.64102 14.9833C9.48268 14.9833 9.32435 14.925 9.19935 14.8C8.95768 14.5583 8.95768 14.1583 9.19935 13.9166L11.116 12L9.19935 10.0833C8.95768 9.84163 8.95768 9.44163 9.19935 9.19996C9.44102 8.95829 9.84102 8.95829 10.0827 9.19996L11.9993 11.1166L13.916 9.19996C14.1577 8.95829 14.5577 8.95829 14.7993 9.19996C15.041 9.44163 15.041 9.84163 14.7993 10.0833L12.8827 12L14.7993 13.9166Z" fill="#F46A6A"/>
</svg>
