<svg width="20" height="20" viewBox="0 0 20 20" fill="none" xmlns="http://www.w3.org/2000/svg">
<path d="M12.916 10.9584H11.1077C9.62435 10.9584 8.41602 9.75837 8.41602 8.26671V6.45837C8.41602 6.11671 8.14102 5.83337 7.79102 5.83337H5.14935C3.22435 5.83337 1.66602 7.08337 1.66602 9.31671V14.85C1.66602 17.0834 3.22435 18.3334 5.14935 18.3334H10.0577C11.9827 18.3334 13.541 17.0834 13.541 14.85V11.5834C13.541 11.2334 13.2577 10.9584 12.916 10.9584Z" fill="#74788D"/>
<path d="M14.8501 1.66663H13.2085H12.3001H9.9418C8.05846 1.66663 6.53346 2.86663 6.4668 5.00829C6.5168 5.00829 6.55846 4.99996 6.60846 4.99996H8.9668H9.87513H11.5168C13.4418 4.99996 15.0001 6.24996 15.0001 8.48329V10.125V12.3833V14.025C15.0001 14.075 14.9918 14.1166 14.9918 14.1583C16.8501 14.1 18.3335 12.8666 18.3335 10.6916V9.04996V6.79163V5.14996C18.3335 2.91663 16.7751 1.66663 14.8501 1.66663Z" fill="#74788D"/>
<path d="M9.9832 5.95837C9.72487 5.70004 9.2832 5.87504 9.2832 6.23337V8.4167C9.2832 9.33337 10.0582 10.0834 11.0082 10.0834C11.5999 10.0917 12.4249 10.0917 13.1332 10.0917C13.4915 10.0917 13.6749 9.67504 13.4249 9.42504C12.5165 8.5167 10.8999 6.8917 9.9832 5.95837Z" fill="#74788D"/>
</svg>
