<svg width="20" height="20" viewBox="0 0 20 20" fill="none" xmlns="http://www.w3.org/2000/svg">
<path d="M17.5574 4.35829C16.2157 4.22496 14.8741 4.12496 13.5241 4.04996V4.04163L13.3407 2.95829C13.2157 2.19163 13.0324 1.04163 11.0824 1.04163H8.89907C6.95741 1.04163 6.77407 2.14163 6.64074 2.94996L6.46574 4.01663C5.69074 4.06663 4.91574 4.11663 4.14074 4.19163L2.44074 4.35829C2.09074 4.39163 1.84074 4.69996 1.87407 5.04163C1.90741 5.38329 2.20741 5.63329 2.55741 5.59996L4.25741 5.43329C8.62407 4.99996 13.0241 5.16663 17.4407 5.60829C17.4657 5.60829 17.4824 5.60829 17.5074 5.60829C17.8241 5.60829 18.0991 5.36663 18.1324 5.04163C18.1574 4.69996 17.9074 4.39163 17.5574 4.35829Z" fill="#F46A6A"/>
<path d="M16.0245 6.78337C15.8245 6.57504 15.5495 6.45837 15.2661 6.45837H4.7328C4.44947 6.45837 4.16613 6.57504 3.97447 6.78337C3.7828 6.99171 3.67447 7.27504 3.69113 7.56671L4.2078 16.1167C4.29947 17.3834 4.41613 18.9667 7.32447 18.9667H12.6745C15.5828 18.9667 15.6995 17.3917 15.7911 16.1167L16.3078 7.57504C16.3245 7.27504 16.2161 6.99171 16.0245 6.78337ZM11.3828 14.7917H8.6078C8.26613 14.7917 7.9828 14.5084 7.9828 14.1667C7.9828 13.825 8.26613 13.5417 8.6078 13.5417H11.3828C11.7245 13.5417 12.0078 13.825 12.0078 14.1667C12.0078 14.5084 11.7245 14.7917 11.3828 14.7917ZM12.0828 11.4584H7.91613C7.57447 11.4584 7.29113 11.175 7.29113 10.8334C7.29113 10.4917 7.57447 10.2084 7.91613 10.2084H12.0828C12.4245 10.2084 12.7078 10.4917 12.7078 10.8334C12.7078 11.175 12.4245 11.4584 12.0828 11.4584Z" fill="#F46A6A"/>
</svg>
