<svg width="16" height="16" viewBox="0 0 16 16" fill="none" xmlns="http://www.w3.org/2000/svg">
<path d="M12.3672 1.01665C12.3672 2.34165 11.2839 3.42498 9.95885 3.42498H6.04219C4.71719 3.42498 3.63385 2.34165 3.63385 1.01665C3.63385 0.549983 3.13385 0.258316 2.71719 0.474983C1.54219 1.09998 0.742188 2.34165 0.742188 3.76665V11.6083C0.742188 13.6583 2.41719 15.3333 4.46719 15.3333H11.5339C13.5839 15.3333 15.2589 13.6583 15.2589 11.6083V3.76665C15.2589 2.34165 14.4589 1.09998 13.2839 0.474983C12.8672 0.258316 12.3672 0.549983 12.3672 1.01665ZM10.7839 7.60832L7.45052 10.9416C7.32552 11.0666 7.16719 11.125 7.00885 11.125C6.85052 11.125 6.69219 11.0666 6.56719 10.9416L5.31719 9.69165C5.07552 9.44998 5.07552 9.04998 5.31719 8.80832C5.55885 8.56665 5.95885 8.56665 6.20052 8.80832L7.00885 9.61665L9.90052 6.72498C10.1422 6.48332 10.5422 6.48332 10.7839 6.72498C11.0255 6.96665 11.0255 7.36665 10.7839 7.60832Z" fill="#F1B44C"/>
</svg>
