<svg width="19" height="16" viewBox="0 0 19 16" fill="none" xmlns="http://www.w3.org/2000/svg">
<path fill-rule="evenodd" clip-rule="evenodd" d="M3.83879 0.0675446C3.35833 0.193149 2.93768 0.531497 2.69449 0.987926L2.56751 1.22631H9.21079C14.5001 1.22631 15.854 1.21652 15.8538 1.17833C15.853 1.07633 15.6129 0.718176 15.4142 0.52263C15.1837 0.295759 14.8291 0.104819 14.5183 0.0402127C14.3757 0.0105775 12.7845 -0.00143795 9.20158 0.000135941C4.51817 0.0021321 4.06735 0.00781348 3.83879 0.0675446ZM1.47834 2.49955C0.830775 2.62397 0.254078 3.1683 0.0712382 3.82769C0.00352248 4.07195 2.92242e-05 4.33536 2.92242e-05 9.20253C2.92242e-05 14.8158 -0.00768665 14.6187 0.227629 15.0268C0.464558 15.4377 0.784403 15.7098 1.24763 15.8945L1.47795 15.9863L9.10872 15.9965C15.8553 16.0055 16.7689 15.9998 16.9934 15.9478C17.7062 15.7824 18.2585 15.2246 18.4081 14.5188C18.4902 14.1312 18.4902 4.32907 18.4081 3.94147C18.2737 3.3075 17.8285 2.79633 17.2017 2.55633L16.9865 2.47391L9.32822 2.46834C4.57606 2.46485 1.59718 2.47671 1.47834 2.49955ZM9.49843 4.98887C9.58426 5.03141 9.68906 5.11344 9.73129 5.17122C9.80633 5.27383 9.80829 5.34523 9.81835 8.33762C9.82399 10.0214 9.84142 11.399 9.85708 11.399C9.87278 11.399 10.2136 11.0697 10.6146 10.6671C11.0155 10.2645 11.3902 9.9104 11.4472 9.88015C11.5043 9.8499 11.6338 9.82521 11.7351 9.82529C12.0801 9.82556 12.322 10.0675 12.3223 10.4125C12.3224 10.5138 12.2977 10.6433 12.2674 10.7004C12.1989 10.8293 9.61144 13.4084 9.4873 13.4715C9.3577 13.5373 9.09778 13.5323 8.9635 13.4614C8.9002 13.428 8.24933 12.7991 7.51717 12.0639C6.34531 10.8872 6.18274 10.7096 6.15905 10.5796C6.07771 10.1336 6.50201 9.73819 6.92746 9.86349C7.05153 9.90003 7.2339 10.0596 7.83978 10.6615L8.59705 11.4139L8.60753 8.38345L8.61805 5.35298L8.70534 5.21256C8.8025 5.05636 9.05463 4.9116 9.22971 4.91156C9.29167 4.91152 9.41259 4.94634 9.49843 4.98887Z" fill="#FF7640"/>
</svg>
