    <svg width="18" height="16" viewBox="0 0 18 16" fill="none" xmlns="http://www.w3.org/2000/svg">
                        <path d="M16.2667 5.75817C15.6834 5.9415 15.0417 5.97484 14.375 5.80817C13.2584 5.5165 12.35 4.62484 12.0417 3.50817C11.8917 2.9665 11.8834 2.43317 11.975 1.94984C12.0834 1.4165 11.7084 0.916504 11.175 0.916504H4.83335C2.33335 0.916504 0.666687 2.1665 0.666687 5.08317V10.9165C0.666687 13.8332 2.33335 15.0832 4.83335 15.0832H13.1667C15.6667 15.0832 17.3334 13.8332 17.3334 10.9165V6.54984C17.3334 5.99984 16.8 5.58317 16.2667 5.75817ZM11.9334 7.2915L10.95 8.07484C10.4 8.5165 9.70002 8.73317 9.00002 8.73317C8.30002 8.73317 7.59169 8.5165 7.05002 8.07484L4.44169 5.9915C4.17502 5.77484 4.13335 5.37484 4.34169 5.10817C4.55835 4.8415 4.95002 4.7915 5.21669 5.00817L7.82502 7.0915C8.45835 7.59984 9.53335 7.59984 10.1667 7.0915L11.15 6.30817C11.4167 6.0915 11.8167 6.13317 12.025 6.40817C12.2417 6.67484 12.2 7.07484 11.9334 7.2915Z" fill="#74788D" />
                    </svg>
