<svg width="15" height="17" viewBox="0 0 15 17" fill="none" xmlns="http://www.w3.org/2000/svg">
<path fill-rule="evenodd" clip-rule="evenodd" d="M7.96605 0.140906C7.8871 0.176739 7.80911 0.245466 7.76281 0.32001C7.6892 0.438422 7.68739 0.45809 7.67754 1.25718L7.66744 2.0734L7.31795 2.09441C5.18678 2.22255 3.30181 3.24048 2.04333 4.94291C1.35559 5.87323 0.926655 6.92571 0.743267 8.13291C0.671945 8.60247 0.671444 9.51246 0.742204 10.0024C0.96452 11.541 1.64851 12.8889 2.77651 14.0113C3.9743 15.2032 5.3959 15.8834 7.06224 16.062C7.47123 16.1058 8.2645 16.0816 8.71945 16.0115C11.8662 15.5261 14.3005 12.9832 14.6439 9.82267C14.6763 9.5245 14.6747 9.50537 14.6058 9.37141C14.5551 9.27295 14.4932 9.21007 14.3967 9.15907C14.2609 9.08722 14.2502 9.08659 13.1496 9.08659H12.0394L11.9078 9.1637C11.7486 9.257 11.6861 9.3781 11.6287 9.70467C11.54 10.2089 11.4477 10.4893 11.23 10.9158C11.029 11.3096 10.8753 11.5154 10.5037 11.8884C9.89217 12.5024 9.27637 12.8359 8.42241 13.0157C8.07383 13.0891 7.33393 13.0893 6.93554 13.0161C5.31504 12.7184 4.03164 11.4265 3.74632 9.80576C3.67722 9.41325 3.67659 8.75099 3.74498 8.39025C3.89825 7.58181 4.26672 6.86909 4.82354 6.30388C5.53739 5.57931 6.37925 5.18724 7.41166 5.09856L7.66731 5.07661L7.67744 5.90121C7.68739 6.70912 7.68914 6.72829 7.76281 6.84679C7.88284 7.03994 8.1409 7.13043 8.35002 7.05273C8.44942 7.0158 11.5599 3.92682 11.6294 3.79602C11.6541 3.74956 11.6743 3.65391 11.6743 3.5834C11.6743 3.51289 11.6541 3.41724 11.6294 3.37078C11.5599 3.23998 8.44942 0.151005 8.35002 0.114078C8.22307 0.0669253 8.11185 0.0746798 7.96605 0.140906Z" fill="#34C38F"/>
</svg>
