      <svg width="16" height="16" viewBox="0 0 16 16" fill="none" xmlns="http://www.w3.org/2000/svg">
                        <path d="M12.3666 1.01689C12.3666 2.34189 11.2833 3.42523 9.95831 3.42523H6.04164C4.71664 3.42523 3.63331 2.34189 3.63331 1.01689C3.63331 0.550227 3.1333 0.258561 2.71664 0.475227C1.54164 1.10023 0.741638 2.34189 0.741638 3.76689V11.6086C0.741638 13.6586 2.41664 15.3336 4.46664 15.3336H11.5333C13.5833 15.3336 15.2583 13.6586 15.2583 11.6086V3.76689C15.2583 2.34189 14.4583 1.10023 13.2833 0.475227C12.8666 0.258561 12.3666 0.550227 12.3666 1.01689ZM10.7833 7.60856L7.44997 10.9419C7.32497 11.0669 7.16664 11.1252 7.00831 11.1252C6.84997 11.1252 6.69164 11.0669 6.56664 10.9419L5.31664 9.69189C5.07497 9.45023 5.07497 9.05023 5.31664 8.80856C5.5583 8.56689 5.95831 8.56689 6.19997 8.80856L7.00831 9.61689L9.89997 6.72523C10.1416 6.48356 10.5416 6.48356 10.7833 6.72523C11.025 6.96689 11.025 7.36689 10.7833 7.60856Z" fill="#F1B44C" />
                    </svg>