    <svg width="18" height="21" viewBox="0 0 18 21" fill="none" xmlns="http://www.w3.org/2000/svg">
                        <path fill-rule="evenodd" clip-rule="evenodd" d="M2.09049 0.242921C1.92615 0.316232 1.75548 0.476857 1.66699 0.641506C1.60818 0.750829 1.60107 1.08113 1.59126 4.14741L1.58044 7.5326L1.22008 7.5503C0.780551 7.57187 0.518142 7.67765 0.300157 7.9212C-0.0152345 8.27356 0.000120902 8.07861 0.000120902 11.7267C0.000120902 14.9503 0.000511579 14.9666 0.0836184 15.1517C0.293476 15.6191 0.630631 15.83 1.21953 15.8622L1.57938 15.8819L1.59072 18.0392C1.60318 20.4063 1.59267 20.3018 1.84281 20.5465C2.09823 20.7963 1.60763 20.78 8.85 20.78C16.0924 20.78 15.6018 20.7963 15.8572 20.5465C16.1073 20.3018 16.0968 20.4063 16.1093 18.0392L16.1206 15.8819L16.4805 15.8622C17.0694 15.83 17.4065 15.6191 17.6164 15.1517C17.6995 14.9666 17.6999 14.9503 17.6999 11.7267C17.6999 8.07861 17.7152 8.27356 17.3998 7.9212C17.1817 7.67745 16.9195 7.57187 16.4789 7.55022L16.1175 7.53248L16.1135 6.32015C16.1114 5.65334 16.0975 5.06279 16.0826 5.00787C16.0502 4.88796 12.1966 0.338202 12.0479 0.244289C11.9535 0.184658 11.5076 0.178945 7.08573 0.180353C2.83275 0.181721 2.21021 0.189527 2.09049 0.242921ZM11.4678 3.11542V5.24732L11.5818 5.37873L11.6958 5.51014L13.5159 5.52137L15.336 5.53259V6.53734V7.54209H8.85H2.364V4.26281V0.983517H6.91592H11.4678V3.11542ZM3.45802 9.97927V11.1288L4.05731 10.2106C4.38693 9.70558 4.72537 9.18898 4.80945 9.06256L4.96231 8.83273L5.65814 8.8312C6.04086 8.83035 6.34547 8.84327 6.33507 8.85985C6.32468 8.87642 5.95447 9.36985 5.5124 9.9563C5.05487 10.5632 4.71724 11.0464 4.72865 11.0778C4.73963 11.1082 5.12641 11.7737 5.58809 12.5568C6.04977 13.3398 6.42752 13.9899 6.42752 14.0013C6.42752 14.0128 6.13303 14.0172 5.77306 14.0111L5.11859 14.0001L4.51297 12.904C4.17988 12.3012 3.89723 11.8078 3.88489 11.8076C3.8725 11.8074 3.77142 11.9227 3.66022 12.0638L3.45802 12.3204V13.1703V14.0202H2.89147H2.32492V11.4249V8.82967H2.89147H3.45802V9.97927ZM8.81769 9.51369C9.08021 10.4265 9.33559 11.4212 9.44011 11.9379C9.48825 12.1759 9.54221 12.3705 9.55998 12.3705C9.5778 12.3705 9.59237 12.3468 9.59237 12.3179C9.59237 12.2012 10.0026 10.6877 10.2542 9.87582C10.4017 9.40002 10.5341 8.97001 10.5484 8.9202C10.5742 8.83047 10.5809 8.82967 11.3107 8.82967H12.0469L12.0714 9.16162C12.0969 9.50717 12.3274 13.8152 12.3274 13.9458C12.3274 14.0146 12.2867 14.0202 11.7837 14.0202H11.2401L11.2178 13.7285C11.1824 13.2652 11.1161 11.1613 11.1162 10.5028C11.1162 10.1727 11.1065 9.9126 11.0947 9.92479C11.0829 9.93694 11.0047 10.207 10.9209 10.525C10.8372 10.8429 10.5764 11.7368 10.3415 12.5113L9.91417 13.9196H9.47035H9.02653L8.84219 13.2356C8.48792 11.9213 8.29299 11.1441 8.16667 10.5424C8.03952 9.9369 8.03933 9.93646 8.01655 10.1575C8.00397 10.2792 7.96619 11.094 7.9325 11.9681C7.89886 12.8423 7.86124 13.6616 7.84889 13.7888L7.82646 14.0202H7.32466C7.04865 14.0202 6.81609 14.0066 6.80785 13.99C6.79542 13.965 7.1096 8.87292 7.12566 8.83884C7.12851 8.83285 7.46743 8.83285 7.87878 8.83884L8.62678 8.84979L8.81769 9.51369ZM14.3498 10.9313L14.3599 13.0129L15.3461 13.0237L16.3323 13.0344V13.5172V14.0001H14.7695H13.2066L13.1964 11.4652C13.1909 10.071 13.1949 8.90712 13.2054 8.87884C13.2199 8.83973 13.3575 8.83011 13.7821 8.8386L14.3397 8.84979L14.3498 10.9313ZM15.336 17.8024V19.7338H8.85H2.364V17.8024V15.8711H8.85H15.336V17.8024Z" fill="#FF7640" />
                    </svg> 